<svg width="140" height="111" viewBox="0 0 140 111" fill="none" xmlns="http://www.w3.org/2000/svg">
<g filter="url(#filter0_i_52_40)">
<path d="M139.858 49.7933C139.858 76.8868 117.894 98.8505 90.8004 98.8505C63.7068 98.8505 41.7431 76.8868 41.7431 49.7933C41.7431 22.6997 63.7068 0.736023 90.8004 0.736023C117.894 0.736023 139.858 22.6997 139.858 49.7933Z" fill="url(#paint0_linear_52_40)"/>
</g>
<g filter="url(#filter1_i_52_40)">
<path d="M118.08 71.3914C118.421 69.4554 118.599 67.4638 118.599 65.4312C118.599 46.4154 103.039 31 83.8464 31C69.578 31 57.3179 39.5196 51.9658 51.7044C47.63 47.9955 42.0037 45.7562 35.8554 45.7562C22.146 45.7562 11.0324 56.8895 11.0324 70.6232C11.0324 71.3879 11.0669 72.1446 11.1343 72.8917C4.54039 76.0917 3.12924e-06 82.8062 3.12924e-06 90.5714C3.12924e-06 101.438 8.8909 110.246 19.8584 110.246H113.634C124.601 110.246 133.492 101.438 133.492 90.5714C133.492 81.2195 126.907 73.3915 118.08 71.3914Z" fill="url(#paint1_linear_52_40)"/>
</g>
<defs>
<filter id="filter0_i_52_40" x="41.7431" y="0.736023" width="98.1145" height="100.204" filterUnits="userSpaceOnUse" color-interpolation-filters="sRGB">
<feFlood flood-opacity="0" result="BackgroundImageFix"/>
<feBlend mode="normal" in="SourceGraphic" in2="BackgroundImageFix" result="shape"/>
<feColorMatrix in="SourceAlpha" type="matrix" values="0 0 0 0 0 0 0 0 0 0 0 0 0 0 0 0 0 0 127 0" result="hardAlpha"/>
<feOffset dy="2.08974"/>
<feGaussianBlur stdDeviation="3.76154"/>
<feComposite in2="hardAlpha" operator="arithmetic" k2="-1" k3="1"/>
<feColorMatrix type="matrix" values="0 0 0 0 1 0 0 0 0 1 0 0 0 0 1 0 0 0 0.81 0"/>
<feBlend mode="normal" in2="shape" result="effect1_innerShadow_52_40"/>
</filter>
<filter id="filter1_i_52_40" x="0" y="31" width="133.492" height="83.4258" filterUnits="userSpaceOnUse" color-interpolation-filters="sRGB">
<feFlood flood-opacity="0" result="BackgroundImageFix"/>
<feBlend mode="normal" in="SourceGraphic" in2="BackgroundImageFix" result="shape"/>
<feColorMatrix in="SourceAlpha" type="matrix" values="0 0 0 0 0 0 0 0 0 0 0 0 0 0 0 0 0 0 127 0" result="hardAlpha"/>
<feOffset dy="4.59744"/>
<feGaussianBlur stdDeviation="2.08974"/>
<feComposite in2="hardAlpha" operator="arithmetic" k2="-1" k3="1"/>
<feColorMatrix type="matrix" values="0 0 0 0 1 0 0 0 0 1 0 0 0 0 1 0 0 0 1 0"/>
<feBlend mode="normal" in2="shape" result="effect1_innerShadow_52_40"/>
</filter>
<linearGradient id="paint0_linear_52_40" x1="83.3486" y1="76.4953" x2="123.712" y2="5.70385" gradientUnits="userSpaceOnUse">
<stop stop-color="#FF9900"/>
<stop offset="1" stop-color="#FFEE94"/>
</linearGradient>
<linearGradient id="paint1_linear_52_40" x1="8.49068" y1="103.171" x2="143.162" y2="2.46189" gradientUnits="userSpaceOnUse">
<stop stop-color="white"/>
<stop offset="1" stop-color="white" stop-opacity="0.58"/>
</linearGradient>
</defs>
</svg>
